<?xml version="1.0" encoding="iso-8859-1"?>
<!-- Generator: Adobe Illustrator 19.0.0, SVG Export Plug-In . SVG Version: 6.00 Build 0)  -->
<svg version="1.1" id="Layer_1" xmlns="http://www.w3.org/2000/svg" xmlns:xlink="http://www.w3.org/1999/xlink" x="0px" y="0px"
	 viewBox="0 0 489.8 489.8" style="enable-background:new 0 0 489.8 489.8;" xml:space="preserve">
<g>
	<g>
		<path d="M459.1,352.05h-1.5v-240.9c0-19.1-15.6-34.2-34.2-34.2H66.9c-19.1,0-34.2,15.6-34.2,34.2v240.9h-2H0v23.1
			c0,21.1,17.1,37.7,37.7,37.7h36.2h341h36.2c21.6,0,38.7-17.1,38.7-37.7v-23.1H459.1z M410.9,352.05h-0.5H290.7v2.5
			c0,7-6,13.1-13.1,13.1h-65.4c-7,0-13.1-6-13.1-13.1v-2.5H79.4v-228.3h331.5V352.05z"/>
	</g>
</g>
<g>
	<g>
		<path d="M244.9,151.95c-48.8,0-88,39.7-88,88c0,48.2,39.2,88,88,88s88-39.7,88-88C332.9,191.15,293.2,151.95,244.9,151.95z
			 M250.9,259.55l-17.1,17.1l-17.1-17.1l-17.1-16.6l17.6-17.1l16.6,16.6l39.2-39.2l17.1,17.1L250.9,259.55z"/>
	</g>
</g>
<g>
</g>
<g>
</g>
<g>
</g>
<g>
</g>
<g>
</g>
<g>
</g>
<g>
</g>
<g>
</g>
<g>
</g>
<g>
</g>
<g>
</g>
<g>
</g>
<g>
</g>
<g>
</g>
<g>
</g>
</svg>
